Coordinates
version=1
nRows=7
nColumns=40
inDegrees=yes

Units are S.I. units (second, meters, Newtons, ...)
If the header above contains a line with 'inDegrees', this indicates whether rotational values are in degrees (yes) or radians (no).

endheader
time	pelvis_tilt	pelvis_list	pelvis_rotation	pelvis_tx	pelvis_ty	pelvis_tz	hip_flexion_r	hip_adduction_r	hip_rotation_r	knee_angle_r	knee_angle_r_beta	ankle_angle_r	subtalar_angle_r	mtp_angle_r	hip_flexion_l	hip_adduction_l	hip_rotation_l	knee_angle_l	knee_angle_l_beta	ankle_angle_l	subtalar_angle_l	mtp_angle_l	lumbar_extension	lumbar_bending	lumbar_rotation	arm_flex_r	arm_add_r	arm_rot_r	elbow_flex_r	pro_sup_r	wrist_flex_r	wrist_dev_r	arm_flex_l	arm_add_l	arm_rot_l	elbow_flex_l	pro_sup_l	wrist_flex_l	wrist_dev_l
      4.92500000	    -22.88045000	     15.00502406	     -7.28517353	     -2.91517705	      0.91288876	      0.29639637	     -3.56317423	    -20.07833429	     -2.93369936	     23.58217226	      0.41158655	    -14.76484073	      0.00000000	      0.00000000	     81.13653596	     -2.73066012	     -9.45333387	     91.13814950	      1.59066078	      9.67165996	      0.00000000	      0.00000000	    -18.78639542	    -20.58249732	     -5.07651301	     76.68579220	    -15.06272599	      4.46072431	    130.89129643	     41.03041451	      0.00000000	      0.00000000	    -77.49224926	    -11.22258616	    -38.52507176	     79.85986502	     51.36665385	      0.00000000	      0.00000000
      4.93000000	    -22.62226437	     15.22118922	     -6.26518763	     -2.88319366	      0.91701752	      0.29667715	     -4.84612068	    -20.06510814	     -2.93832844	     24.52594678	      0.42805852	    -17.80371923	      0.00000000	      0.00000000	     80.34899838	     -2.14944804	    -10.33500534	     86.80471269	      1.51502804	      9.34246415	      0.00000000	      0.00000000	    -19.31586204	    -21.05681370	     -6.32310270	     73.49715170	    -15.59951245	      4.63213267	    131.95143135	     41.14964541	      0.00000000	      0.00000000	    -76.73870186	    -11.16346422	    -38.77808846	     80.57838321	     51.40329363	      0.00000000	      0.00000000
      4.93500000	    -22.24457586	     15.34683679	     -5.42606972	     -2.85130673	      0.92156301	      0.29705168	     -5.81952672	    -19.93281562	     -2.78750936	     26.11810139	      0.45584686	    -20.05941162	      0.00000000	      0.00000000	     79.15876665	     -1.65630375	    -11.26071759	     82.36087482	      1.43746844	      8.95227776	      0.00000000	      0.00000000	    -20.01612675	    -21.38113440	     -7.42601500	     69.99981300	    -15.92419180	      4.92697503	    132.50871125	     41.24421032	      0.00000000	      0.00000000	    -75.51488926	    -11.35183424	    -38.70985788	     81.16853436	     51.42988110	      0.00000000	      0.00000000
      4.94000000	    -21.76921140	     15.38827532	     -4.75968955	     -2.81955497	      0.92639054	      0.29750992	     -6.47302204	    -19.70043610	     -2.50200475	     28.33161003	      0.49447988	    -21.62044755	      0.00000000	      0.00000000	     77.62813002	     -1.24162321	    -12.19965457	     77.85342198	      1.35879855	      8.45584472	      0.00000000	      0.00000000	    -20.86351729	    -21.63107227	     -8.30201172	     66.16778903	    -16.30668589	      5.07816411	    132.50413209	     41.29610225	      0.00000000	      0.00000000	    -73.89547476	    -11.70125139	    -38.53863012	     81.86938103	     51.45972312	      0.00000000	      0.00000000
      4.94500000	    -21.22164460	     15.35751174	     -4.25153531	     -2.78796460	      0.93135897	      0.29805651	     -6.80014384	    -19.38994230	     -2.12730398	     31.14258268	      0.54354061	    -22.45060709	      0.00000000	      0.00000000	     75.82212446	     -0.90039742	    -13.14416300	     73.34439773	      1.28010123	      7.89101145	      0.00000000	      0.00000000	    -21.84452492	    -21.83103094	     -8.85358036	     62.09026792	    -16.85407037	      4.82696671	    132.09495889	     41.31367051	      0.00000000	      0.00000000	    -71.91190077	    -12.29320669	    -38.27106063	     82.75395054	     51.48953041	      0.00000000	      0.00000000
      4.95000000	    -20.63788491	     15.24547750	     -3.86059074	     -2.75655464	      0.93631536	      0.29865567	     -6.80812754	    -18.99417517	     -1.71663659	     34.48216263	      0.60182727	    -22.69225402	      0.00000000	      0.00000000	     73.82216184	     -0.61443564	    -14.05690341	     68.89858989	      1.20250724	      7.23463293	      0.00000000	      0.00000000	    -22.86571033	    -21.90485168	     -9.17344098	     57.87884314	    -17.29933026	      4.42351834	    131.10866640	     41.29367408	      0.00000000	      0.00000000	    -69.64694657	    -13.20450081	    -37.63781486	     83.69753690	     51.51002321	      0.00000000	      0.00000000
      4.95500000	    -20.05102356	     15.06144761	     -3.54588653	     -2.72532570	      0.94112644	      0.29927009	     -6.51659510	    -18.52508613	     -1.32513154	     38.25758289	      0.66772079	    -22.48265637	      0.00000000	      0.00000000	     71.70064135	     -0.36530845	    -14.93447861	     64.57840624	      1.12710581	      6.48189516	      0.00000000	      0.00000000	    -23.87257879	    -21.83412149	     -9.62877661	     53.87593942	    -17.29519001	      4.45495350	    129.24169385	     41.18987435	      0.00000000	      0.00000000	    -67.11430426	    -13.81010870	    -37.06445212	     84.63016912	     51.56009998	      0.00000000	      0.00000000
